<svg xmlns="http://www.w3.org/2000/svg" width="81" height="81" viewBox="0 0 81 81"><g transform="translate(-1807 -25)"><circle cx="40.5" cy="40.5" r="40.5" transform="translate(1807 25)" fill="#393939"/><path d="M13.5.125A23,23,0,0,0,6.047,1.4c-2.008.687-3.2,1.394-3.64,2.16A7.37,7.37,0,0,0,2,6.9v7.736c0,1.693.066,2.546.435,3.123.447.7,1.595,1.345,3.613,2.035A22.706,22.706,0,0,0,13.5,21.092,22.7,22.7,0,0,0,20.952,19.8c1.291-.442,3.074-1.143,3.646-2.121A7.534,7.534,0,0,0,25,14.3V6.9a7.709,7.709,0,0,0-.4-3.418c-.422-.713-1.583-1.374-3.652-2.083A23,23,0,0,0,13.5.125m0-2A24.878,24.878,0,0,1,21.6-.489C27,1.36,27,3.079,27,6.9V14.3c0,3.693,0,5.545-5.4,7.393a24.121,24.121,0,0,1-16.2,0C.2,19.91,0,18.223,0,14.644c0,.065,0-.137,0-.346V6.9C0,3.341,0,1.36,5.4-.489A24.878,24.878,0,0,1,13.5-1.875Z" transform="translate(1834 54.892)" fill="#fff"/></g></svg>