<svg xmlns="http://www.w3.org/2000/svg" width="542.12" height="86.198" viewBox="0 0 542.12 86.198"><g transform="translate(-27 -32.901)"><path d="M11.56-8v2.28a.106.106,0,0,1-.12.12H7.68a.106.106,0,0,1-.12-.12V-9h-6v4.84A4.01,4.01,0,0,0,5.8.08h7.52a4.031,4.031,0,0,0,4.24-4.24V-7.92a5.825,5.825,0,0,0-1.6-4.2L7.68-20.28a.363.363,0,0,1-.12-.28v-1.72a.106.106,0,0,1,.12-.12h3.76a.106.106,0,0,1,.12.12V-19h6v-4.84a4.031,4.031,0,0,0-4.24-4.24H5.8a4.01,4.01,0,0,0-4.24,4.24v3.2a5.825,5.825,0,0,0,1.6,4.2l8.28,8.16A.363.363,0,0,1,11.56-8ZM34.68,0V-5.6h-8v-6.08h6v-5.2h-6V-22.4h8V-28h-14V0Zm8.08,0V-28h-6V0ZM63.84,0,57.36-15.52l6-12.48H57.12L51.84-16.48V-28h-6V0h6V-6.04L53.48-9.4,57.2,0ZM80.96-4.16V-23.84a4.031,4.031,0,0,0-4.24-4.24H69.2a4.031,4.031,0,0,0-4.24,4.24V-4.16A4.031,4.031,0,0,0,69.2.08h7.52A4.031,4.031,0,0,0,80.96-4.16Zm-6-18.12V-5.72a.106.106,0,0,1-.12.12H71.08a.106.106,0,0,1-.12-.12V-22.28a.106.106,0,0,1,.12-.12h3.76A.106.106,0,0,1,74.96-22.28ZM18.207,37.4v3.591a.167.167,0,0,1-.189.189H12.1a.167.167,0,0,1-.189-.189V35.825H2.457v7.623a6.316,6.316,0,0,0,6.678,6.678H20.979a6.349,6.349,0,0,0,6.678-6.678V37.526a9.174,9.174,0,0,0-2.52-6.615L12.1,18.059a.572.572,0,0,1-.189-.441V14.909a.167.167,0,0,1,.189-.189h5.922a.167.167,0,0,1,.189.189v5.166h9.45V12.452a6.349,6.349,0,0,0-6.678-6.678H9.135a6.316,6.316,0,0,0-6.678,6.678v5.04a9.174,9.174,0,0,0,2.52,6.615L18.018,36.959A.572.572,0,0,1,18.207,37.4ZM57.771,26.942V12.578A6.349,6.349,0,0,0,51.093,5.9H32.571V50h9.45V33.62h9.072A6.316,6.316,0,0,0,57.771,26.942Zm-9.45-12.033v9.7a.167.167,0,0,1-.189.189H42.021V14.72h6.111A.167.167,0,0,1,48.321,14.909ZM87.129,43.448v-31a6.349,6.349,0,0,0-6.678-6.678H68.607a6.349,6.349,0,0,0-6.678,6.678v31a6.349,6.349,0,0,0,6.678,6.678H80.451A6.349,6.349,0,0,0,87.129,43.448Zm-9.45-28.539V40.991a.167.167,0,0,1-.189.189H71.568a.167.167,0,0,1-.189-.189V14.909a.167.167,0,0,1,.189-.189H77.49A.167.167,0,0,1,77.679,14.909ZM117.873,50,112.9,33.305a6.284,6.284,0,0,0,4.347-6.363V12.578A6.349,6.349,0,0,0,110.565,5.9H92.043V50h9.45V33.62h2.394L108.045,50Zm-16.38-35.28H107.6a.167.167,0,0,1,.189.189v9.7a.167.167,0,0,1-.189.189h-6.111Zm44.289,0V5.9h-25.2v8.82h7.875V50h9.45V14.72ZM164.871,37.4v3.591a.167.167,0,0,1-.189.189H158.76a.167.167,0,0,1-.189-.189V35.825h-9.45v7.623a6.316,6.316,0,0,0,6.678,6.678h11.844a6.349,6.349,0,0,0,6.678-6.678V37.526a9.174,9.174,0,0,0-2.52-6.615L158.76,18.059a.572.572,0,0,1-.189-.441V14.909a.167.167,0,0,1,.189-.189h5.922a.167.167,0,0,1,.189.189v5.166h9.45V12.452a6.349,6.349,0,0,0-6.678-6.678H155.8a6.316,6.316,0,0,0-6.678,6.678v5.04a9.174,9.174,0,0,0,2.52,6.615l13.041,12.852A.572.572,0,0,1,164.871,37.4Zm28.917,1.7V31.226H177.66V39.1ZM219.114,14.72V5.9h-22.05V50h9.45V31.6h9.45v-8.19h-9.45V14.72ZM244.44,50V41.18h-12.6V31.6h9.45v-8.19h-9.45V14.72h12.6V5.9H222.39V50Zm19.026-12.6v3.591a.167.167,0,0,1-.189.189h-5.922a.167.167,0,0,1-.189-.189V35.825h-9.45v7.623a6.316,6.316,0,0,0,6.678,6.678h11.844a6.349,6.349,0,0,0,6.678-6.678V37.526a9.174,9.174,0,0,0-2.52-6.615L257.355,18.059a.572.572,0,0,1-.189-.441V14.909a.167.167,0,0,1,.189-.189h5.922a.167.167,0,0,1,.189.189v5.166h9.45V12.452a6.349,6.349,0,0,0-6.678-6.678H254.394a6.316,6.316,0,0,0-6.678,6.678v5.04a9.174,9.174,0,0,0,2.52,6.615l13.041,12.852A.572.572,0,0,1,263.466,37.4Z" transform="translate(130 63)" fill="#393939"/><g transform="translate(-563.33 -41.648)"><path d="M627.359,74.642a.324.324,0,0,1-.241.093,1.279,1.279,0,0,0-.528.231,1.333,1.333,0,0,1-.482.231.86.86,0,0,0-.417.278,9.764,9.764,0,0,1-1.944,1.2,4.918,4.918,0,0,0-.639.4c-.306.222-.843.556-1.185.75a3.947,3.947,0,0,0-.722.472c-.111.13-.093.574.046,1.25.028.13.093.519.139.88a9.968,9.968,0,0,0,.185,1.065c.139.574.574,3.343.528,3.389-.018.028-.148,0-.287-.056a1.861,1.861,0,0,0-.463-.093.5.5,0,0,1-.333-.139c-.065-.074-.148-.111-.2-.083a.2.2,0,0,1-.194-.037,2.556,2.556,0,0,0-.528-.231c-1.009-.352-1.537-.556-1.778-.676-.139-.074-.259-.1-.259-.065s-.046.019-.111-.046a.669.669,0,0,0-.407-.111c-.287,0-.454.176-.8.833-.046.074-.167.287-.287.472s-.407.667-.667,1.093-.593.954-.75,1.194l-.287.426-.6-.009a2.433,2.433,0,0,1-.8-.111,1.119,1.119,0,0,0-.444-.1,2.3,2.3,0,0,1-.537-.083,13.684,13.684,0,0,0-2.343-.38c-.38,0-.407.019-.565.389a8.118,8.118,0,0,0-.3.769c-.065.2-.232.648-.38.991a3.761,3.761,0,0,0-.268.75.4.4,0,0,1-.139.25.476.476,0,0,0-.139.324.473.473,0,0,1-.065.269,2.725,2.725,0,0,0-.259.639l-.185.574-.972.074c-.537.037-1.157.083-1.389.1s-.9.056-1.491.056a6.486,6.486,0,0,0-1.185.083,11.175,11.175,0,0,0-.518,3.12c-.083.861-.176,1.583-.194,1.6a5.6,5.6,0,0,1-1.426-1.009c-.333-.287-.7-.583-.833-.667a10.419,10.419,0,0,1-.908-.713,6.143,6.143,0,0,0-.741-.565,1.627,1.627,0,0,1-.389-.306c-.176-.157-.482-.435-.676-.6l-.352-.3-.343.185c-.185.111-.509.3-.713.417s-.537.315-.741.426-.444.259-.528.315-.417.231-.741.407a5.951,5.951,0,0,0-.722.417,9.491,9.491,0,0,1-1.009.574,5.02,5.02,0,0,0-.509.306,1.113,1.113,0,0,1-.315.148,1.408,1.408,0,0,0-.454.287l-.25.231.028,3.12c.018,1.713.037,3.435.046,3.815l.009.694.324.157a5.6,5.6,0,0,0,.741.3c.231.074.713.25,1.065.389s1.028.38,1.482.546,1,.37,1.2.454a3.175,3.175,0,0,0,.583.2c.333.065.88.352.87.454,0,.046-.139.167-.315.269s-.537.343-.833.556c-.6.444-.62.454-1.639,1.111a5.05,5.05,0,0,0-.87.657,12.712,12.712,0,0,0,1.306,2.88,8.345,8.345,0,0,1,.759,1.713,1.546,1.546,0,0,1-.37.62c-.2.241-.657.778-1.019,1.194a10.063,10.063,0,0,0-.648.806,3.636,3.636,0,0,1-.657.833c-.528.611-.528.63.222,1.407a12.185,12.185,0,0,1,.806.917,4.689,4.689,0,0,0,.389.472,7.47,7.47,0,0,1,1.556,1.945,2.755,2.755,0,0,1-.417.843,3.325,3.325,0,0,0-.417.741.4.4,0,0,1-.13.231,3.511,3.511,0,0,0-.361.593c-.13.25-.38.7-.565,1-.4.657-.426.991-.111,1.2a5.5,5.5,0,0,1,.676.556c.241.222.759.648,1.139.944a12.967,12.967,0,0,1,1.667,1.435,18.418,18.418,0,0,1-3.1,1.25,10.447,10.447,0,0,0-1.019.417.369.369,0,0,1-.231.083,1.7,1.7,0,0,0-.472.176,4.029,4.029,0,0,1-.695.278c-.722.194-.667-.1-.713,4.148l-.037,3.824.565.278c.315.148.963.509,1.444.8.852.5,1.62.954,3.361,1.972a5.318,5.318,0,0,0,.954.472,9.232,9.232,0,0,0,1.806-1.333c.231-.213.769-.648,1.185-.982s1.046-.824,1.38-1.093c.824-.648,1.037-.8,1.083-.741s.3,2.472.389,3.778a3.8,3.8,0,0,0,.13.889,2.5,2.5,0,0,0,.852.167c.417.028,1.074.093,1.454.139s1.194.139,1.806.2a4.436,4.436,0,0,1,1.232.222,17.427,17.427,0,0,1,1.019,2.639,5.952,5.952,0,0,0,.8,1.9,18.769,18.769,0,0,0,3.565-.37,6.046,6.046,0,0,1,1.25-.12c.454.028.482.037.7.454.13.231.3.528.38.648s.491.8.917,1.5.787,1.287.824,1.315a5.922,5.922,0,0,0,1.491-.519c.713-.315.87-.38,1.093-.463.111-.046.3-.12.417-.167,1.074-.444,1.482-.574,1.574-.482.074.074.056.3-.055.769-.083.37-.222,1.213-.306,1.88a10.43,10.43,0,0,1-.241,1.62,14.828,14.828,0,0,0-.259,2c0,.241.065.315.352.463a3.558,3.558,0,0,1,.528.324c.1.074.537.343.972.583s.833.509.907.574a.387.387,0,0,0,.213.13,8.411,8.411,0,0,1,1.019.556c.5.315,1.009.6,1.13.657a5.662,5.662,0,0,1,.62.352,1.86,1.86,0,0,0,.565.278,5.923,5.923,0,0,0,1.2-.611c1.472-.861,2.13-1.232,2.176-1.232.018,0,.463-.259.982-.583s1.028-.611,1.111-.648a3.1,3.1,0,0,0,.528-.3c.444-.269.463-.4.241-1.574-.241-1.352-.4-2.315-.4-2.546a3.7,3.7,0,0,0-.1-.6,11.88,11.88,0,0,1-.268-2.13,5.3,5.3,0,0,1,1.445.528,1.384,1.384,0,0,0,.4.167,1.409,1.409,0,0,1,.389.13c.982.444,1.269.565,1.685.713.62.222.778.222.88-.046a6.511,6.511,0,0,1,.481-.824c.769-1.167,1.324-2.056,1.482-2.389.278-.583.111-.574,2.435-.231.565.074,1.25.194,1.528.25a3.058,3.058,0,0,0,1.648.065,11.251,11.251,0,0,0,.769-2.019c.2-.583.426-1.195.5-1.343s.185-.463.259-.685a.962.962,0,0,1,.259-.481c.074-.037,1.268-.185,2.657-.324a24.284,24.284,0,0,0,2.667-.361c.083-.065.139-.472.185-1.482.093-2.019.231-3.046.426-3.083a7.811,7.811,0,0,1,1.5,1.111,24.748,24.748,0,0,0,3.75,2.945,16.064,16.064,0,0,0,2.37-1.185c.259-.157.8-.481,1.2-.713s.982-.574,1.287-.75a2.775,2.775,0,0,1,.648-.315,1.847,1.847,0,0,0,.537-.4l.435-.389.028-3.658.037-3.658-.75-.306c-.408-.176-.991-.417-1.3-.537s-.63-.269-.713-.324a.8.8,0,0,0-.305-.083,4.9,4.9,0,0,1-1.2-.472c-.2-.093-.722-.306-1.148-.472a2.91,2.91,0,0,1-.806-.4,28.1,28.1,0,0,1,2.833-2.556c.676-.528.824-.75.657-.954a5.382,5.382,0,0,1-.37-.63c-.454-.87-1.037-1.954-1.361-2.537-.463-.833-.435-.963.389-1.889.4-.435.88-1,1.093-1.259s.639-.769.963-1.139l.583-.676-.157-.241a5.247,5.247,0,0,0-.463-.574c-.167-.176-.463-.537-.648-.787s-.565-.722-.824-1.037c-.889-1.093-1.157-1.463-1.157-1.583a4.053,4.053,0,0,1,.361-.833c.194-.389.444-.9.565-1.13a13.248,13.248,0,0,1,1.028-1.9.581.581,0,0,0,.083-.333c0-.269-.528-.713-2.343-1.954-.1-.065-.426-.306-.722-.528-.667-.481-.676-.463.8-.972a10.815,10.815,0,0,0,1.111-.426,2.846,2.846,0,0,1,.509-.213c.232-.083.713-.259,1.065-.389s.889-.324,1.176-.417a2.6,2.6,0,0,0,1.1-.537c.028-.25-.009-3.241-.065-5.25-.065-2.5-.1-2.732-.482-2.732a1.915,1.915,0,0,1-.583-.324,5.172,5.172,0,0,0-.491-.324c-.019,0-.435-.231-.935-.509a10.772,10.772,0,0,0-.954-.509,11.154,11.154,0,0,1-.982-.565,6.429,6.429,0,0,0-1.991-1.009,16.571,16.571,0,0,0-2.232,1.62c-.38.306-1.093.861-1.574,1.222a11.566,11.566,0,0,0-1.056.852.654.654,0,0,1-.278.194c-.13,0-.361-.741-.4-1.3-.018-.231-.074-.685-.12-1.019s-.111-.972-.148-1.417a2.212,2.212,0,0,0-.194-.954c-.1-.1-.444-.13-1.4-.148-2.593-.028-3.306-.037-3.408-.056-.056-.009-.176-.194-.268-.417s-.241-.556-.333-.759-.213-.537-.278-.741-.3-.833-.509-1.407-.426-1.139-.463-1.278c-.148-.6-.518-.6-3.13-.028a13.824,13.824,0,0,1-1.528.222l-.7.046-.333-.537c-.185-.3-.491-.787-.685-1.093s-.454-.722-.583-.926-.343-.537-.482-.741a3.464,3.464,0,0,1-.315-.546c-.046-.148-.12-.167-.509-.12a6.742,6.742,0,0,0-1.787.62.8.8,0,0,1-.352.093,2.617,2.617,0,0,0-.685.231,3.075,3.075,0,0,1-.611.231c-.056,0-.12.065-.148.139s-.083.12-.12.093a1.008,1.008,0,0,0-.417.056.767.767,0,0,1-.4.046,5.736,5.736,0,0,1,.25-1.546,6.07,6.07,0,0,0,.185-1.111,14.4,14.4,0,0,1,.25-1.472,9.505,9.505,0,0,0,.38-2.2c-.028-.324-.074-.37-.907-.88-.482-.3-.963-.574-1.065-.62s-.454-.25-.787-.454-.806-.5-1.065-.648a6.577,6.577,0,0,1-.583-.38,3.627,3.627,0,0,0-.574-.333,2.05,2.05,0,0,1-.509-.315,2.747,2.747,0,0,0-1.12-.463C627.516,74.549,627.387,74.586,627.359,74.642Zm1.713.926a.091.091,0,0,1-.083.093.2.2,0,0,1-.148-.093c-.028-.056.009-.093.083-.093S629.072,75.512,629.072,75.568Zm-.417,1.111a.585.585,0,0,0,.259.185,1.2,1.2,0,0,1,.407.241,2.444,2.444,0,0,0,.6.333,3.15,3.15,0,0,1,.583.3c.38.25.9.565,1.509.9.482.269.482.278.472.713,0,.241-.046.769-.093,1.176s-.1.944-.13,1.2c-.074.787-.518,4.25-.556,4.306a2.9,2.9,0,0,0-.046.611,22.388,22.388,0,0,1-.324,3c-.074.38-.157.88-.176,1.111s-.093.769-.148,1.2-.139,1.269-.176,1.843a2.847,2.847,0,0,1-.176,1.1.085.085,0,0,0-.056.13c.065.1-.37-.148-.62-.361a.369.369,0,0,0-.232-.111,5.754,5.754,0,0,1-1.407-.315c-.195-.093-.213-.157-.2-.759.018-.852.046-7.213.037-10.278,0-1.324-.028-2.787-.074-3.25-.065-.732-.046-.889.083-1.093.111-.167.13-.278.065-.361a2.57,2.57,0,0,1-.157-1.417C628.174,76.438,628.331,76.318,628.655,76.679Zm-1.824,2.074c0,1.194.028,2.213.055,2.269s.074,1.333.093,2.852.074,4.148.111,5.834a15.313,15.313,0,0,1-.037,3.083,2.7,2.7,0,0,1-.991-.472,2.44,2.44,0,0,0-.667-.306c-.278-.065-.306-.056-.306.157a3.024,3.024,0,0,0,.148.694c.148.454.148.481-.1,1.269-.333,1.037-.4.935-.546-.787-.028-.231-.083-.685-.148-1.019s-.139-.9-.176-1.259a4.1,4.1,0,0,0-.12-.741,5.988,5.988,0,0,1-.111-1,13.194,13.194,0,0,0-.157-1.38,6.575,6.575,0,0,1-.083-.982,1.369,1.369,0,0,0-.1-.63,7.026,7.026,0,0,1-.361-2.1,5.78,5.78,0,0,0-.167-1.019,2.678,2.678,0,0,1-.1-.7,3.586,3.586,0,0,0-.074-.685,4.1,4.1,0,0,1-.13-.787c-.046-.389-.12-.972-.157-1.306-.12-.88-.167-.806.954-1.463.2-.12.6-.361.88-.528a17.549,17.549,0,0,1,2.185-1.157A6.868,6.868,0,0,1,626.831,78.753Zm-7.593,6.63c.213.1.565.269.787.361s.7.315,1.083.5c.852.389,1.046.472,1.13.454.167-.037.352.463.444,1.139.046.407.176,1.176.269,1.713s.3,1.639.426,2.454.3,1.769.37,2.13.176,1.046.232,1.537c.1.833.1.907-.074,1.25-.268.509-1.25,1.565-1.389,1.482a3.554,3.554,0,0,1-.528-1.111c-.093-.482-.88-3.269-1.028-3.695a2.3,2.3,0,0,1-.13-.7.9.9,0,0,0-.139-.509.514.514,0,0,1-.139-.306.836.836,0,0,0-.139-.37,3.347,3.347,0,0,1-.269-.833c-.074-.343-.268-1.009-.417-1.463a7.115,7.115,0,0,1-.287-.991.311.311,0,0,0-.148-.241c-.1-.056-.12-.111-.056-.148s.046-.222-.074-.593a12.709,12.709,0,0,1-.518-1.852C618.572,85.133,618.646,85.1,619.238,85.383Zm17.39-.083a.193.193,0,0,1-.046.2.461.461,0,0,0-.1.278,1.475,1.475,0,0,1-.139.463,25.3,25.3,0,0,0-.741,2.75c-.074.333-.25.954-.38,1.389-.231.741-.509,1.769-.685,2.5-.037.176-.185.694-.324,1.157a30.787,30.787,0,0,0-.787,3.139c-.009.194-.241.593-.305.509-.019-.019-.12-.185-.232-.361a7.438,7.438,0,0,0-.9-1.009l-.713-.676.093-.667c.194-1.343.315-2.074.528-3.158.12-.611.241-1.324.278-1.574s.074-.593.1-.741.083-.528.13-.833a14,14,0,0,1,.38-1.926c.018-.028.667-.315,1.426-.657s1.518-.676,1.667-.75C636.221,85.179,636.545,85.16,636.628,85.3Zm2,1.444c.935,1.472,1.083,1.75,1.009,1.843a10.3,10.3,0,0,0-.426.963c-.194.481-.38.917-.417.972a1.562,1.562,0,0,0-.13.426,3.6,3.6,0,0,1-.287.787,2.7,2.7,0,0,0-.232.537,5.789,5.789,0,0,1-.287.694c-.157.333-.315.694-.352.8s-.213.519-.38.926c-.88,2.148-1.306,3.213-1.537,3.843-.13.38-.343.917-.463,1.185a2.71,2.71,0,0,0-.222.63.794.794,0,0,1-.13.343,7.86,7.86,0,0,0-.38.963c-.389,1.167-.519,1.046-.556-.519a10.766,10.766,0,0,0-.176-1.7,1.666,1.666,0,0,1,.055-1.25,3.313,3.313,0,0,1,.324-.769.547.547,0,0,0,.12-.3,4.827,4.827,0,0,1,.222-.778c.13-.343.3-.88.38-1.185s.278-.907.417-1.343.454-1.417.694-2.176c.695-2.185.972-3.037,1.056-3.241.046-.1.176-.5.287-.88a8.358,8.358,0,0,1,.38-1.065,1.968,1.968,0,0,0,.176-.519c0-.13.074-.269.148-.269C637.934,85.661,638.258,86.151,638.628,86.744Zm-21.121-.833a3.773,3.773,0,0,0,.2.787c.074.222.213.648.306.954s.306.954.472,1.435.333.972.352,1.083.3,1.037.62,2.037c1.083,3.343,1.315,4.056,1.333,4.167.009.056.139.454.3.88a8.909,8.909,0,0,1,.574,1.926,3.269,3.269,0,0,1-.722,1.194l-.176.213-.259-.537c-.306-.657-.759-1.648-.917-2.028-.065-.157-.25-.537-.417-.861a1.66,1.66,0,0,1-.232-.574c.037,0,.019-.056-.037-.12a.341.341,0,0,1-.1-.185c-.009-.037-.111-.278-.241-.546a2.9,2.9,0,0,1-.232-.556c0-.065-.565-1.407-1.333-3.176-.139-.306-.278-.639-.324-.741s-.167-.37-.278-.583a2.283,2.283,0,0,1-.194-.537.8.8,0,0,0-.083-.3,5.729,5.729,0,0,1-.565-1.269,7.152,7.152,0,0,1,.926-1.667c.213-.241.491-.787.4-.8s.445-.259.556-.269A.079.079,0,0,1,617.507,85.911Zm-7.648,1.139c.028.046.009.093-.037.093a.1.1,0,0,1-.1-.093c0-.056.019-.093.037-.093S609.831,86.994,609.858,87.049Zm3.167.333a.187.187,0,0,1-.176.009c-.074-.028-.046-.056.055-.056S613.062,87.355,613.025,87.383Zm-.2,1.148c.259.046.7.111,1,.148.63.074.648.093,1.12,1.25.176.435.639,1.435,1.028,2.222s.75,1.528.8,1.657c.083.278.935,2.167,1.574,3.5.25.528.454.972.454.991s.25.565.555,1.2.556,1.185.556,1.213a3.4,3.4,0,0,0,.194.444l.185.407-.389.759c-.444.87-.426.87-.963-.139a5.31,5.31,0,0,0-.417-.694,2.885,2.885,0,0,1-.315-.556c-.139-.278-.407-.769-.6-1.083s-.657-1.111-1.018-1.759-.759-1.352-.889-1.556c-.241-.4-.518-.9-.935-1.713a7.134,7.134,0,0,0-.463-.787,3.065,3.065,0,0,1-.305-.6,1.772,1.772,0,0,0-.278-.509,7.438,7.438,0,0,1-.593-.972c-.435-.833-.556-1.046-1.4-2.565-.287-.519-.518-.963-.518-.991A6.509,6.509,0,0,1,612.821,88.531Zm31.066-.037a2.215,2.215,0,0,1-.241.574c-.139.241-.435.787-.667,1.222a10.255,10.255,0,0,1-.528.926c-.055.074-.259.454-.454.833a20.058,20.058,0,0,1-1,1.824,3.985,3.985,0,0,0-.352.667,5.15,5.15,0,0,1-.407.759c-.37.63-1.565,2.889-2.3,4.343-.157.333-.454.87-.648,1.194a5.085,5.085,0,0,0-.352.63c0,.019-.268.5-.6,1.056a10.342,10.342,0,0,0-.6,1.1,8.475,8.475,0,0,1-.759,1.537c-.148.093-.333-.148-.444-.593a2.13,2.13,0,0,1-.019-1.6c.1-.222.25-.593.324-.824s.324-.75.528-1.157a7.091,7.091,0,0,0,.417-.88,10.97,10.97,0,0,1,.732-1.852,2.158,2.158,0,0,0,.241-.537,5.028,5.028,0,0,1,.333-.833c.176-.389.4-.88.5-1.083s.315-.685.5-1.065a6.145,6.145,0,0,0,.333-.769c0-.037.213-.509.463-1.046a9.565,9.565,0,0,0,.463-1.056,2.413,2.413,0,0,1,.278-.537,1.855,1.855,0,0,0,.278-.62,1.467,1.467,0,0,1,.176-.5c.093-.185.269-.565.389-.843.278-.657.259-.648.741-.694.537-.065,1.945-.241,2.12-.278C643.7,88.318,643.888,88.355,643.888,88.494Zm-33.622.8c.065.111.232.389.361.62s.4.676.593.982.426.722.528.926a3.648,3.648,0,0,0,.389.648,3.271,3.271,0,0,1,.343.509c.065.13.231.426.37.657s.37.63.518.88.407.667.574.926a2.549,2.549,0,0,1,.315.556,1.788,1.788,0,0,0,.278.444,1.828,1.828,0,0,1,.278.444,1.273,1.273,0,0,0,.232.389,1.271,1.271,0,0,1,.231.389.347.347,0,0,0,.111.2,4.339,4.339,0,0,1,.4.611c.491.88.907,1.565,1.3,2.139a8,8,0,0,1,.694,1.139,4.848,4.848,0,0,0,.37.62,2.147,2.147,0,0,1,.278.472,4.132,4.132,0,0,0,.38.657l.37.6-.148.315a.847.847,0,0,1-.8.5c-.195,0-.732-.639-1.482-1.759-.259-.38-.583-.824-.713-.972a9.158,9.158,0,0,1-.907-1.315c-.065-.111-.38-.528-.694-.935-.657-.815-1.87-2.445-2.445-3.259-.824-1.185-2.426-3.408-2.88-4.009-.287-.38-.324-.481-.241-.648a2.189,2.189,0,0,0,.148-.435,9.216,9.216,0,0,1,1.056-2.5C610.109,89.087,610.192,89.179,610.266,89.29Zm35.261.37c.1.269.259.7.343.972a7.339,7.339,0,0,0,.343.833c.194.38.231.815.074.917a2.7,2.7,0,0,0-.417.537,14.061,14.061,0,0,1-1.018,1.417,1.932,1.932,0,0,0-.241.333c-.056.111-.463.7-.907,1.315s-1.111,1.546-1.491,2.074-.769,1.074-.87,1.2-.426.6-.713,1.037-.7,1.009-.9,1.287-.407.593-.463.694a1.058,1.058,0,0,1-.241.324,7.578,7.578,0,0,0-.657.88c-.278.407-.676.972-.87,1.25s-.528.75-.722,1.037a1.663,1.663,0,0,1-.435.537,1.872,1.872,0,0,1-.491-.389c-.482-.454-.482-.648.028-1.37a3.66,3.66,0,0,0,.324-.509,3.617,3.617,0,0,1,.306-.509c.556-.843.713-1.12.713-1.241a.385.385,0,0,1,.139-.241.4.4,0,0,0,.139-.2,1.057,1.057,0,0,1,.167-.333c.343-.5.657-1,.824-1.315.093-.176.389-.676.657-1.111.556-.9.528-.852,1.037-1.7.2-.343.37-.648.37-.667a4.72,4.72,0,0,1,.324-.5,2.611,2.611,0,0,0,.324-.537,1.685,1.685,0,0,1,.232-.407c.25-.361,1.157-1.926,1.157-1.991a5.52,5.52,0,0,1,.352-.565c.361-.565.417-.648.815-1.315a22.19,22.19,0,0,1,1.519-2.222A1.873,1.873,0,0,1,645.526,89.661ZM608.1,91.679c.028.046.009.093-.037.093a.1.1,0,0,1-.1-.093c0-.056.018-.093.037-.093S608.071,91.624,608.1,91.679Zm-1.3.185c.028.046.009.093-.037.093a.1.1,0,0,1-.1-.093c0-.056.018-.093.037-.093S606.775,91.809,606.8,91.864Zm-3.935.556a.093.093,0,0,1-.093.093.1.1,0,0,1-.093-.093.093.093,0,0,1,.093-.093A.087.087,0,0,1,602.867,92.42Zm4.8.611a11.791,11.791,0,0,1,1.982,2.3c.231.315.713.926,1.065,1.361s.982,1.241,1.417,1.8,1.185,1.482,1.676,2.074,1.232,1.509,1.648,2.046c1.074,1.38,1.2,1.546,1.7,2.148a2.291,2.291,0,0,1,.435.657,1.45,1.45,0,0,1-.361.472c-.426.417-.509.4-1.185-.352-.407-.454-2.343-2.519-4.278-4.556-.435-.454-1.3-1.37-1.908-2.019s-1.472-1.574-1.907-2.037-1.213-1.3-1.713-1.861-1.093-1.194-1.306-1.407c-.658-.648-.62-.676,1.065-.676C606.794,92.976,607.544,93,607.664,93.031Zm43.15.176a11.672,11.672,0,0,1-1.741,1.972c-.537.556-1.324,1.389-1.759,1.861s-1.12,1.222-1.537,1.657c-1.87,2.009-2.407,2.6-2.6,2.833-.333.407-1.815,1.991-2.194,2.352-.194.185-.528.528-.741.759s-.732.787-1.167,1.25-.945,1.019-1.139,1.232a1.253,1.253,0,0,1-.472.389c-.065,0-.241-.167-.38-.37-.222-.324-.241-.407-.157-.611a11.14,11.14,0,0,1,1.306-1.759,10.426,10.426,0,0,0,.7-.88c.148-.222.648-.889,1.111-1.472s.9-1.157.972-1.259c.25-.37,1.657-2.213,1.8-2.352.065-.074.38-.472.676-.88.565-.75,1.037-1.352,1.463-1.852a20.254,20.254,0,0,0,1.343-1.769,4.411,4.411,0,0,1,.509-.639l.5-.574,1.741.037C650,93.152,650.8,93.189,650.814,93.207ZM627.026,94.8a6.358,6.358,0,0,1,.435.982,1.72,1.72,0,0,1,.12,1.13,4.053,4.053,0,0,0-.074.62,8.363,8.363,0,0,1-1.232,3.158,24.65,24.65,0,0,0-1.306,2.426,14.668,14.668,0,0,0-1.519,4.167,20.887,20.887,0,0,0-.074,3.954,4.1,4.1,0,0,0,4.185,2.963,3.745,3.745,0,0,0,2.12-.546,10.782,10.782,0,0,0,3.232-3.185,9.449,9.449,0,0,0,1.25-2.519c0-.139.287-.62.38-.62s.269.38.315.694a2.5,2.5,0,0,0,.065.324,4.787,4.787,0,0,1,.176,1.611,5.45,5.45,0,0,0-.315.769,5.278,5.278,0,0,1-1.046,1.88c-.315.343-.407.676-.222.787a1.566,1.566,0,0,1,.287.444,1.5,1.5,0,0,1,.148,1.028,1.969,1.969,0,0,1-.546,1.426,2.079,2.079,0,0,1-1.315.481,8.183,8.183,0,0,0-1.13.139,19.484,19.484,0,0,1-5.732.157,8.493,8.493,0,0,0-.833-.2,7.155,7.155,0,0,1-1.787-.657c-.63-.278-.7-.343-1.408-1.269a5.508,5.508,0,0,1-.741-1.148.844.844,0,0,0-.13-.38,8.829,8.829,0,0,1-.593-1.685,11.186,11.186,0,0,1-.065-4.935,12.694,12.694,0,0,1,.935-3.139,1.387,1.387,0,0,0,.13-.426.376.376,0,0,1,.12-.241,2.664,2.664,0,0,0,.389-.722,14.746,14.746,0,0,1,2.685-3.648c.259-.287.546-.648.648-.787a18.755,18.755,0,0,0,1.25-2.213,1.381,1.381,0,0,1,.148-.407,2.428,2.428,0,0,0,.176-.824c.018-.287.037-.546.046-.574A4.079,4.079,0,0,1,627.026,94.8Zm-29.89-.093c.324.25.657.5.731.565s.352.278.611.463c1.287.935,2.917,2.167,3.611,2.722a7.644,7.644,0,0,0,.833.63,3.059,3.059,0,0,1,.556.417,3.285,3.285,0,0,0,.537.417c.056,0,.759.519,3.065,2.278,1.417,1.074,2.167,1.639,2.454,1.843a22.078,22.078,0,0,1,1.759,1.389.4.4,0,0,0,.2.139,1.265,1.265,0,0,1,.38.222c.3.213,1.046.38,1.13.25.046-.083-.343-.454-.694-.676-.13-.074-.546-.407-.935-.732s-.88-.741-1.1-.917-.583-.472-.8-.648-.778-.639-1.241-1.019-1.093-.889-1.38-1.139-.75-.611-1.028-.824-.907-.722-1.389-1.12-.954-.787-1.046-.861c-.139-.111-.157-.25-.111-1.065a16.512,16.512,0,0,1,.278-2.583.174.174,0,0,1,.13-.093,8.735,8.735,0,0,1,.991.9c1.056,1.046,4.148,4.046,7.315,7.111,4.676,4.519,4.408,4.241,4.343,4.482-.093.352-.509,1.028-.648,1.028a1.338,1.338,0,0,1-.435-.222c-.232-.157-.37-.194-.482-.13-.25.139-.167.315.315.685.519.4.546.5.37,1.593a8.01,8.01,0,0,0,.361,3.074,11.464,11.464,0,0,0,.917,1.565,1.491,1.491,0,0,1,.3.593,5.652,5.652,0,0,1-.518,1.12,3.393,3.393,0,0,0-.611,1.861c-.056.509-.1.935-.111.944a4.039,4.039,0,0,1-.519.12c-.593.111-.722.213-.556.417.074.093.278.139.6.139.565,0,.667.093.713.593.028.361.019.361-.306.38-.389.019-.546.1-.546.278,0,.2.12.231.556.13.389-.093.426-.083.611.148a1.165,1.165,0,0,1,.2.593l.018.352-.787.25c-.815.269-.972.37-.806.537.074.074.259.065.639-.019.741-.167,1.056-.167,1.148,0,.445.824.435.833-.333,1.25-.972.519-1.3.75-1.3.935,0,.259.5.213.9-.083a3.657,3.657,0,0,1,1.37-.667,2.562,2.562,0,0,1,.287.482l.2.426-.259.194a4.028,4.028,0,0,0-.472.38c-.12.1-.38.306-.583.454-.287.213-.352.3-.278.4.185.213.4.13,1.037-.435.667-.583.944-.676,1.222-.4a.39.39,0,0,1,.1.389c-.028.13-.083.38-.12.556-.046.259-.685.935-3.63,3.852-10.649,10.556-10.973,10.88-11.065,10.723a4.179,4.179,0,0,1-.111-.9c-.019-.407-.037-.75-.046-.75s-.028-.444-.056-.991l-.037-.991.491-.463c.269-.25.62-.546.769-.667s.463-.38.694-.583.62-.546.87-.75.62-.519.833-.694.694-.574,1.074-.88,1.13-.926,1.657-1.389,1.056-.917,1.176-1.019.565-.472,1-.833a3.681,3.681,0,0,0,.741-.713.871.871,0,0,0-.426-.074,1.151,1.151,0,0,0-.852.389c-.259.222-.528.435-.593.491a2.346,2.346,0,0,0-.3.269,3.545,3.545,0,0,1-.4.324,15.832,15.832,0,0,0-1.611,1.194c-.167.157-.648.537-1.065.852-.778.574-1.546,1.176-1.88,1.472-.1.083-.537.426-.963.759s-1.093.843-1.491,1.148-1.222.954-1.852,1.435-1.315,1.019-1.519,1.176-.565.435-.8.6-.824.63-1.324,1.028c-1.009.824-1.065.833-1.787.333a3.178,3.178,0,0,0-.435-.269c-.028,0-.481-.259-1.019-.583s-1.157-.685-1.389-.824c-.259-.148-.417-.306-.389-.37a1.734,1.734,0,0,1,.528-.4c.259-.157.657-.38.87-.509.444-.259,1.787-1.083,2.111-1.3.361-.232,1.25-.769,1.759-1.065a6.83,6.83,0,0,0,.62-.38,4.193,4.193,0,0,1,.546-.315,6.81,6.81,0,0,0,.741-.454,3.6,3.6,0,0,1,.583-.361,8.348,8.348,0,0,0,.815-.482,6.791,6.791,0,0,1,.593-.37c.018,0,.38-.213.806-.472s.954-.583,1.185-.713a7.792,7.792,0,0,0,.694-.435,10.45,10.45,0,0,1,.926-.556,8.608,8.608,0,0,0,.963-.583,3.847,3.847,0,0,1,.6-.389.674.674,0,0,0,.315-.269c.037-.111-.093-.12-.7-.083a2.572,2.572,0,0,0-1.352.4,4.458,4.458,0,0,0-.667.426.235.235,0,0,1-.185.083,1.06,1.06,0,0,0-.435.222,6.813,6.813,0,0,1-.824.472,1.622,1.622,0,0,0-.537.343c0,.037-.056.074-.12.074a1.928,1.928,0,0,0-.556.278,2.4,2.4,0,0,1-.546.278.465.465,0,0,0-.25.13,8.89,8.89,0,0,1-.8.472,7.05,7.05,0,0,0-.787.463,4.829,4.829,0,0,1-.648.37c-.278.13-.907.463-1.389.741s-1,.565-1.157.639-.63.343-1.065.6a5.883,5.883,0,0,1-.889.472,1.646,1.646,0,0,0-.463.259,9.591,9.591,0,0,1-2.074,1.083,22.12,22.12,0,0,1-.093-2.6V132.6l.435-.185c.25-.1.528-.222.63-.259s.38-.167.611-.278a2.4,2.4,0,0,1,.574-.194,1.241,1.241,0,0,0,.407-.13c.139-.074.611-.278,1.046-.454s1.019-.407,1.3-.528.694-.269.926-.352c.583-.194.648-.269.648-.732a.707.707,0,0,0-.343-.7c-.546-.482-1.185-1.019-1.472-1.259-.944-.8-1.333-1.157-1.269-1.222a12.991,12.991,0,0,1,1.787-.593c0,.009.389-.111.861-.269.824-.278.852-.3.88-.593.019-.213-.019-.315-.13-.361a9.652,9.652,0,0,0-2.565.407c-1.222.306-1.333.25-.926-.407a4.49,4.49,0,0,0,.4-.787.955.955,0,0,1,.194-.4.374.374,0,0,0,.083-.259.944.944,0,0,1,.231-.463c.232-.259.695-.389,2.1-.574.491-.065.574-.2.518-.8l-.028-.315-.556.009c-.306.009-.787.046-1.083.083a2.549,2.549,0,0,1-.75.009,4.944,4.944,0,0,1-1.046-.972c-1.3-1.435-1.435-1.611-1.389-1.732.037-.093.482-.111,1.833-.093.982.009,1.861,0,1.944-.019.194-.046.324-.63.194-.843-.074-.111-.25-.148-.639-.157-.306,0-1.185-.009-1.954-.019-.972-.009-1.417-.056-1.417-.12a2.709,2.709,0,0,1,.463-.639,5.164,5.164,0,0,0,.463-.593,7.179,7.179,0,0,1,1.019-1.176l.417-.426.889.037a2.824,2.824,0,0,0,.945-.037,1.387,1.387,0,0,0,.074-.444c.037-.343.018-.37-.241-.426a9,9,0,0,0-1.5-.287c-.287-.009-.426-.222-1.222-1.945-.389-.833-.38-.944.065-.87a16.887,16.887,0,0,0,2.537.315c.231-.019.306-.083.361-.278.074-.287-.046-.426-.426-.5a2.64,2.64,0,0,1-.5-.167,10.312,10.312,0,0,0-1.648-.519c-.222-.056-.4-.139-.4-.185a2.172,2.172,0,0,1,.491-.426c1.25-.907,2.62-1.945,2.676-2.028a.844.844,0,0,0,.074-.38c0-.259-.056-.315-.482-.528-.268-.12-.722-.3-1-.389a4.344,4.344,0,0,1-.815-.333,1.523,1.523,0,0,0-.407-.176,3.848,3.848,0,0,1-.667-.269c-.306-.148-.75-.343-.982-.426s-.583-.241-.787-.324l-.907-.37a2.654,2.654,0,0,1-.574-.278c-.065-.1-.139-4.972-.074-5.028.028-.028.241.083.472.25a9.023,9.023,0,0,0,.991.583c.306.157.907.482,1.343.722.982.556,1.5.833,2.5,1.361.435.231,1.139.62,1.574.861s1,.556,1.25.694c1.583.833,3.176,1.741,3.565,2.037.417.324.889.565.963.491a1.761,1.761,0,0,1,.611.287,2.1,2.1,0,0,0,1.306.4c.63.046.732.037.732-.093,0-.093-.2-.259-.482-.4s-.759-.417-1.093-.63-.991-.62-1.472-.889-.963-.574-1.083-.648-.556-.343-.982-.593-.87-.528-1-.62a11.656,11.656,0,0,0-1.6-.972,1.07,1.07,0,0,1-.37-.213,5.916,5.916,0,0,0-.583-.38c-.361-.2-1.315-.778-3.232-1.945-.352-.213-.861-.537-1.13-.7a2.912,2.912,0,0,0-.537-.315,3.4,3.4,0,0,1-1.065-.759,5.13,5.13,0,0,1,1.333-.907,2.845,2.845,0,0,0,.454-.25,3.612,3.612,0,0,1,1.111-.583,1.239,1.239,0,0,0,.435-.231,1.135,1.135,0,0,1,.509-.231A2.571,2.571,0,0,1,597.136,94.707Zm54.678,1.472.231,1.843-.259.213c-.343.3-1.287,1.12-1.611,1.407-.139.13-.528.463-.87.741s-.982.843-1.426,1.25-1.093.982-1.444,1.287-1.037.9-1.519,1.333-.944.861-1.037.926c-.185.13-.241.611-.083.713.055.037.4-.185.759-.481s1.074-.861,1.593-1.259c1.75-1.343,2.232-1.722,2.528-1.982a5.469,5.469,0,0,1,1.213-.861.237.237,0,0,0,.176-.13c.083-.139,2.167-1.824,3.037-2.463.306-.222.778-.6,1.056-.852a8.52,8.52,0,0,1,.926-.741,5.669,5.669,0,0,0,.611-.463c.1-.093.565-.454,1.018-.8,1.87-1.38,2.176-1.556,2.408-1.324.056.046.509.306,1.019.574,2.954,1.546,2.926,1.519,1.972,2.12-.324.2-.731.472-.907.6s-.546.343-.815.481-.87.491-1.343.778-1,.611-1.176.713c-1.167.648-3.713,2.176-4.63,2.769-.38.241-.759.463-.833.491a6.452,6.452,0,0,0-1.315.852c-.222.213-.259.315-.259.75a1.874,1.874,0,0,0,.055.556,2.308,2.308,0,0,0,.7-.37c.361-.222.722-.435.806-.472.13-.046,1.472-.8,1.861-1.037a5.263,5.263,0,0,1,.463-.259c.4-.222,2.083-1.176,2.667-1.528.241-.139.62-.352.852-.463s.63-.352.88-.519.732-.426,1.065-.583a8.958,8.958,0,0,0,1.13-.648,12.962,12.962,0,0,1,1.2-.685,5.461,5.461,0,0,0,.88-.528c.12-.1.241-.157.278-.13s.056,1.176.046,2.528c-.009,2.722.018,2.6-.62,2.806-.2.065-.491.176-.648.241-.556.241-2.232.944-2.546,1.065-.176.065-.491.194-.7.287a1.721,1.721,0,0,1-.509.176.489.489,0,0,0-.231.074,9.247,9.247,0,0,1-1.009.435c-1.195.463-1.269.528-1.232,1.056l.028.426.509-.028c.5-.028.528-.019,1.3.556.435.324,1.009.732,1.278.9a2.09,2.09,0,0,1,.574.482c.083.148.037.185-.389.315-.63.2-2.546.685-2.87.741a1.731,1.731,0,0,0-.454.139c-.176.1-.194.167-.139.528.074.556.12.611.463.556.435-.074,1.833-.389,2.88-.657a2.883,2.883,0,0,1,1.009-.148,4.882,4.882,0,0,1-.583,1.241,13.141,13.141,0,0,0-.657,1.25c0,.167-.333.287-.982.352-.722.083-.9.259-.787.8l.065.3.787-.028.787-.037.5.574c.268.315.583.685.685.833s.389.509.639.815a2.969,2.969,0,0,1,.435.657,7.288,7.288,0,0,1-1.963.12l-1.972.028v.926l2.019.028a7.717,7.717,0,0,1,2.009.12,6,6,0,0,1-.935,1.241c-.185.2-.556.63-.815.944l-.481.583h-.713a15.071,15.071,0,0,1-1.676-.139,5.8,5.8,0,0,0-1.083-.074c-.083.028-.13.194-.13.454,0,.463.157.593.676.593a12.142,12.142,0,0,1,2.63.491,5.353,5.353,0,0,1,.407.667c.157.306.435.769.6,1.037a2.169,2.169,0,0,1,.315.6.422.422,0,0,0,.12.25c.093.093-.018.1-.583.056-.38-.037-.815-.083-.972-.111a7.453,7.453,0,0,0-.833-.065c-.537-.009-.556,0-.565.222-.009.491.139.713.546.824.426.111,1.13.259,1.639.343a1.006,1.006,0,0,1,.444.176c.139.13-.343.537-2.176,1.87l-.861.62v.519c0,.472.018.519.287.667a1.329,1.329,0,0,0,.37.167,3.711,3.711,0,0,1,.583.232,2.881,2.881,0,0,0,.62.231,4,4,0,0,1,.722.269c.917.407,2.241.935,2.333.935a2.279,2.279,0,0,1,.482.176c.213.093.6.259.852.361l.463.194.009,2.6.009,2.611-.268-.056a9.016,9.016,0,0,1-1.417-.722c-.63-.37-1.593-.926-2.148-1.232s-1.2-.676-1.463-.815-.778-.444-1.157-.657-.778-.435-.88-.5c-1.324-.75-2.75-1.556-3.417-1.917-.454-.241-1.028-.556-1.278-.7a3.719,3.719,0,0,0-.5-.269,1.331,1.331,0,0,1-.3-.167,3.723,3.723,0,0,0-2.167-.926c-.741-.046-.907.037-.509.25a5.006,5.006,0,0,1,.481.287c.158.1.343.213.417.25s.435.25.787.472c.565.361,1.056.667,1.759,1.1.1.065.435.268.741.454s.685.435.852.556a1.646,1.646,0,0,0,.343.222,4.977,4.977,0,0,1,.574.343c.287.194.63.417.759.491.269.148,1.176.7,2.7,1.648.537.324,1.269.769,1.62.982s.945.583,1.3.806.954.6,1.324.824a4.37,4.37,0,0,1,.722.482c.083.13-.13.324-.6.556-.639.315-3,1.676-3.139,1.806-.25.241-.352.176-1.8-.963-.519-.417-1.157-.926-1.417-1.13s-.889-.713-1.417-1.139c-.954-.769-1.083-.87-2.111-1.639-.3-.232-.917-.732-1.38-1.13a10.431,10.431,0,0,0-1.111-.861,7.782,7.782,0,0,1-.88-.667c-.537-.454-1.954-1.574-3.417-2.713-.287-.222-.62-.509-.75-.639a2.53,2.53,0,0,0-1.222-.7c-.657-.12-.537.028,1.306,1.583.13.111,1.093.954,2.139,1.88s2.046,1.8,2.222,1.954.722.62,1.2,1.046.991.87,1.139.991l.25.222.093,2.028c.055,1.111.074,2.046.055,2.065s-.157-.037-.306-.139c-.3-.2-3.056-3.009-3.269-3.315-.167-.241-6.963-7.176-9.556-9.769-1.963-1.945-2-2-1.695-2.583.083-.157.2-.278.278-.278a4.406,4.406,0,0,1,.926.6c.944.722,1.185.833,1.352.63.1-.12.083-.176-.12-.343-.139-.1-.472-.37-.741-.583s-.63-.491-.806-.6c-.5-.343-.556-.481-.305-.907a1.626,1.626,0,0,0,.2-.5c0-.194.111-.185.38.019a7.3,7.3,0,0,0,.639.38,6.129,6.129,0,0,1,.695.435c.667.491,1.185.63,1.287.343.074-.194.065-.2-.778-.648-.38-.2-.843-.463-1.019-.574a5.752,5.752,0,0,0-.574-.3c-.213-.083-.259-.157-.259-.4a.89.89,0,0,1,.13-.472c.12-.167.139-.167.528-.009.889.361,1.278.5,1.324.444.028-.019.1,0,.167.056a3.368,3.368,0,0,0,1.333.352c.2-.074.157-.324-.074-.426-.519-.213-1.491-.574-1.583-.593a4.351,4.351,0,0,1-.435-.12c-.176-.056-.435-.13-.574-.157-.444-.1-.518-.25-.426-.9a3.626,3.626,0,0,1,.111-.62,3.426,3.426,0,0,1,.769.194c2.482.787,2.722.815,2.787.37.018-.148-.037-.2-.232-.241-.139-.028-.546-.139-.907-.25a6.926,6.926,0,0,0-.926-.231,7.717,7.717,0,0,1-.787-.167c-.509-.12-.509-.12-.537-.509s-.028-.389.278-.389c.167,0,.843.083,1.5.185,1.417.222,1.537.222,1.769.056.315-.231.037-.4-.769-.454-.935-.065-2.537-.241-2.676-.3-.074-.019-.12-.194-.12-.407,0-.6.056-.657.6-.657.852,0,.75-.417-.12-.528-.519-.056-.454.028-.991-1.167a2.406,2.406,0,0,1,.083-1.722,1.013,1.013,0,0,0,.176-.417c.028-.241.111-.3.676-.519.352-.139.815-.333,1.028-.444a1.826,1.826,0,0,1,.537-.2c.176,0,.185-.222,0-.37-.1-.083-.185-.083-.389.028a6.447,6.447,0,0,1-1.38.528c-.1,0-.13-.176-.13-.722v-.732l.4-.167a3.278,3.278,0,0,0,1.083-.722c0-.12-.333-.065-.917.167a2.466,2.466,0,0,1-.657.185,1.289,1.289,0,0,1-.139-.528l-.065-.482.463-.426a5.771,5.771,0,0,1,.88-.639c.519-.269.9-.935.528-.935a9.2,9.2,0,0,0-.963.657,3.852,3.852,0,0,1-1.046.62c-.167-.028-.472-.759-.481-1.167-.009-.148.556-.778,2.148-2.37,1.176-1.194,2.583-2.62,3.12-3.158s1.037-1.037,1.111-1.1a4.549,4.549,0,0,0,.509-.565c.518-.648,6.7-6.852,6.769-6.787C651.564,94.318,651.684,95.17,651.814,96.179Zm-26.168-.611a.1.1,0,0,1-.1.093c-.046,0-.065-.046-.037-.093s.074-.093.1-.093S625.646,95.513,625.646,95.568Zm3.574.25a8.334,8.334,0,0,1,2.12,1.769,6.018,6.018,0,0,1,1.222,3.028,2,2,0,0,1-.3,1.454,4,4,0,0,1-1.019,1.361,4.7,4.7,0,0,1-2,1.213c-.232,0-.222-.185.009-.25.1-.028.185-.093.185-.148a3.751,3.751,0,0,1,.417-.7,4.329,4.329,0,0,0,.639-3c-.065-.639-.12-.852-.213-.852-.074,0-.176.139-.213.324a4.962,4.962,0,0,1-.222.62,1.693,1.693,0,0,0-.13.444,3.216,3.216,0,0,1-.435.806c-.25.361-.574.861-.741,1.13a5.062,5.062,0,0,1-1.62,1.815,4.785,4.785,0,0,0-1.556,1.732.114.114,0,0,1-.093.12c-.12,0-.037-1.046.093-1.343.046-.1.194-.519.333-.926a6.97,6.97,0,0,1,.509-1.185,2.228,2.228,0,0,0,.269-.537,1.172,1.172,0,0,1,.222-.389,9.257,9.257,0,0,0,.889-1.7.382.382,0,0,1,.139-.213.445.445,0,0,0,.139-.287.887.887,0,0,1,.083-.343,6.787,6.787,0,0,0,.685-3.38c-.037-.528-.018-.806.037-.806A2.434,2.434,0,0,1,629.22,95.818Zm-6.676,2.8a.1.1,0,0,1-.037.139c-.046.028-.1-.009-.139-.083C622.313,98.522,622.452,98.476,622.544,98.615Zm-2.176,2.139c0,.046-.018.093-.037.093s-.074-.046-.1-.093-.009-.093.037-.093A.1.1,0,0,1,620.368,100.754Zm-1.806,1.111c.028.046.009.093-.037.093a.1.1,0,0,1-.1-.093c0-.056.019-.093.037-.093S618.535,101.809,618.563,101.865Zm14.649,1.778a13.293,13.293,0,0,1,.009,2.732.213.213,0,0,0-.037.2,5.236,5.236,0,0,1-.343,1.537,11.565,11.565,0,0,1-1.213,1.982c-.213.269-.445.583-.519.7a4.526,4.526,0,0,1-1.306,1.065c-1.861,1.157-3.148,1.3-4.046.435a2.5,2.5,0,0,1-.352-2.945,6.694,6.694,0,0,1,2.574-2.38,17.085,17.085,0,0,0,4.611-3.167,4.43,4.43,0,0,1,.537-.5A1.205,1.205,0,0,1,633.211,103.643Zm-18.769.546c0,.056-.037.065-.093.037a.216.216,0,0,1-.093-.148c0-.056.046-.065.093-.037A.189.189,0,0,1,614.442,104.189ZM598.3,106.235c-.028.074-.056.046-.056-.056s.018-.157.046-.12A.188.188,0,0,1,598.3,106.235Zm20.167.232a5,5,0,0,1-.148.593,27.064,27.064,0,0,0,.037,3.741,6.3,6.3,0,0,0,.343,1.3,5.065,5.065,0,0,1,.185.565,14.882,14.882,0,0,0,1.12,2.546c.222.315.12.389-.241.167-.148-.093-.463-.25-.685-.361A3.138,3.138,0,0,1,617.5,113.6a5.531,5.531,0,0,0-.361-.713,3.7,3.7,0,0,1-.435-1.157,6.033,6.033,0,0,1-.111-2.037,3.038,3.038,0,0,1,.176-.833.471.471,0,0,0,.083-.278,6.8,6.8,0,0,1,1.194-1.991,1.194,1.194,0,0,0,.287-.38.091.091,0,0,1,.093-.083C618.488,106.124,618.507,106.254,618.47,106.467Zm-21.992.731c0,.074-.037.111-.093.083a.2.2,0,0,1-.093-.148.091.091,0,0,1,.093-.083C596.441,107.05,596.478,107.115,596.478,107.2Zm40.187,1.861a5.393,5.393,0,0,0,.38.676,3.409,3.409,0,0,1,.361,1.111.291.291,0,0,0,.083.222c.148.093.185.583.093,1.093-.046.269-.13.759-.176,1.093a4.109,4.109,0,0,1-.176.787c-.046.1-.157.37-.25.6a2.545,2.545,0,0,1-1.222,1.3,1.6,1.6,0,0,1-.352.065,1.7,1.7,0,0,1,.065-.435,3.759,3.759,0,0,0-.222-2.083l-.231-.546.306-.361a1.888,1.888,0,0,0,.37-.694,1.311,1.311,0,0,1,.139-.435,5.1,5.1,0,0,0,.232-.778,4.122,4.122,0,0,0,.1-1.444C636.082,108.124,636.174,108.1,636.665,109.06Zm-19.075,7.889c.148.278.111.472-.083.472a.292.292,0,0,0-.241.093.324.324,0,0,1-.241.093c-.185,0-.231-.213-.12-.63C616.979,116.708,617.442,116.689,617.59,116.949Zm18.973.157c.278.352.25.648-.083.824a.639.639,0,0,1-.88-.093c-.333-.324-.306-.667.074-.833C636.119,116.81,636.35,116.838,636.563,117.106Zm-13.964.324c.268.139.213.407-.13.593-.407.213-.732.139-.861-.213-.167-.426-.009-.611.445-.537A2.19,2.19,0,0,1,622.6,117.43Zm-24.853.194c-.028.074-.056.046-.056-.056s.018-.157.046-.12A.188.188,0,0,1,597.747,117.625Zm29.807.481c.519.519.528.731.028.991a1.1,1.1,0,0,1-1.25-.111c-.343-.2-.389-.4-.176-.676a2.753,2.753,0,0,1,.917-.6A1.752,1.752,0,0,1,627.554,118.106Zm-7.111.3c.111.074.2.185.2.25,0,.241-.694.713-1.046.713-.333,0-.9-.435-.9-.694,0-.231.352-.546.694-.62A1.9,1.9,0,0,1,620.442,118.4Zm13.241-.176a2.223,2.223,0,0,1,.343.417l.157.25-.38.185a1.079,1.079,0,0,1-1.185.009c-.407-.241-.389-.491.046-.778C633.072,118.032,633.424,118.014,633.683,118.227Zm4.139,1.037c0,.222-.046.426-.1.444-.176.056-.593-.343-.593-.574s.12-.324.463-.3C637.8,118.856,637.822,118.893,637.822,119.264Zm-43.335.009c.028.046.018.093-.037.093a.216.216,0,0,1-.148-.093c-.028-.056-.018-.093.037-.093A.189.189,0,0,1,594.488,119.273Zm29.168.852c.676.648.491,1.056-.519,1.1-.694.028-1.12-.213-1.083-.6.018-.222.13-.333.537-.583a3.59,3.59,0,0,1,.583-.306A2.305,2.305,0,0,1,623.655,120.125Zm12.593-.3a.2.2,0,0,1-.148.093.091.091,0,0,1-.083-.093c0-.056.065-.093.148-.093S636.276,119.773,636.248,119.828Zm-5.389.361c.333.315.37.38.25.519a1.187,1.187,0,0,1-1.694.046c-.278-.25-.287-.259-.13-.491a1.251,1.251,0,0,1,.972-.426A1.129,1.129,0,0,1,630.859,120.19Zm5.324.065c.37.259.407.454.139.722a.868.868,0,0,1-1.176.028c-.343-.278-.287-.444.241-.7C635.859,120.069,635.915,120.06,636.183,120.254Zm-18.427.37c.157.1.185.176.12.3a.834.834,0,0,1-.759.37c-.194-.028-.222-.083-.25-.481l-.028-.444.352.065A1.757,1.757,0,0,1,617.757,120.625Zm9.741,1.315a1.815,1.815,0,0,1,.463.583c-.009.574-1.324.907-1.806.454-.324-.306-.37-.537-.167-.759a3.506,3.506,0,0,1,.972-.722A2.891,2.891,0,0,1,627.5,121.94Zm-6.435.574c.222.352-.611.889-1.222.778-.454-.074-.954-.38-.954-.574,0-.167.037-.194.833-.593l.5-.241.4.269A2.693,2.693,0,0,1,621.063,122.514Zm14.4-.556c0,.046-.065.093-.148.093s-.111-.046-.083-.093a.176.176,0,0,1,.148-.093A.085.085,0,0,1,635.461,121.958Zm-1.963.176a3.264,3.264,0,0,0,.648.306l.389.13-.241.222c-.194.194-.324.231-.833.231-.537,0-.63-.028-.8-.222l-.176-.231.352-.306c.194-.167.37-.3.38-.306A1.205,1.205,0,0,1,633.5,122.134Zm-9.241,1.546c.361.241.546.574.426.769a1.984,1.984,0,0,1-1.037.287c-.269,0-.778-.3-.778-.444a2.791,2.791,0,0,1,.889-.852A1.615,1.615,0,0,1,624.257,123.68Zm6.38.194c.472.583.306.954-.417.954-.417,0-.87-.278-.87-.528,0-.222.565-.667.852-.676A.543.543,0,0,1,630.637,123.875Zm5.621-.176a1.084,1.084,0,0,1,.185.824c-.046.13-.157.167-.556.167-.806,0-.889-.278-.232-.824C635.952,123.616,636.082,123.579,636.258,123.7Zm-2.482,1.426a.533.533,0,0,1,.111.333c0,.185-.037.213-.3.185-.333-.028-.454-.259-.259-.491A.269.269,0,0,1,633.776,125.125Zm-3.917.444c.537.083.889.12,2.037.231a3.912,3.912,0,0,1,.741.139,18.9,18.9,0,0,0,1.991.407c.546.083.685.278.4.565-.12.12-.259.139-.713.093a5.452,5.452,0,0,1-.843-.139,7.447,7.447,0,0,0-.972-.139c-.38-.028-1.148-.111-1.713-.185-2.843-.352-8.787-.3-10.232.1-.843.222-1.139-.231-.343-.528a5.189,5.189,0,0,1,1.759-.361,12.516,12.516,0,0,0,1.269-.1A31.4,31.4,0,0,1,629.859,125.569ZM627,127.486c.259.148.361,1.139.195,1.88-.093.417-.157.519-.37.593s-.287.056-.491-.139c-.213-.222-.241-.315-.278-1.315l-.037-1.074.25-.028A.986.986,0,0,1,627,127.486Zm-2.241.12a4.163,4.163,0,0,1,.13,1.194c.037,1.176.028,1.195-.491,1.37-.657.222-.861-.167-.944-1.741l-.037-.907.259-.037A1.854,1.854,0,0,1,624.757,127.607Zm4.852.028a.556.556,0,0,1,.259.306,6.445,6.445,0,0,1-.37,2.028,1.025,1.025,0,0,1-.565.157l-.463.028-.028-.639a5.073,5.073,0,0,1,.259-1.954C628.822,127.421,629.239,127.449,629.609,127.634Zm-7.5.435c.074.231.167.5.2.6a7.676,7.676,0,0,1,.324,1.306c.074.491-.028.574-.861.648-.574.056-.695.037-.852-.1a3.226,3.226,0,0,1-.5-1.861c-.009-.926.12-1.046,1.093-1.019C621.97,127.653,621.97,127.653,622.109,128.07Zm9.917-.13c.185.13.2.2.167.63a8.463,8.463,0,0,1-.435,1.935c-.093.1-.806-.111-.935-.269-.074-.083-.065-.259,0-.611.056-.269.12-.657.139-.87.056-.574.287-.963.593-.963A.977.977,0,0,1,632.026,127.94Zm5.083.12c.1.148,1.324,1.472,2.7,2.935s2.639,2.824,2.806,3.009c.648.741,2.741,3,5.148,5.565,2.472,2.648,2.852,3.093,2.769,3.176a22.071,22.071,0,0,1-2.685.269c-.787.046-.815.037-.972-.185-.25-.343-.657-.88-.963-1.241-.139-.176-.444-.574-.676-.88s-.731-.972-1.12-1.482c-1.8-2.333-2.333-3.046-2.639-3.463-.556-.769-1.685-2.259-1.982-2.62-.157-.185-.472-.593-.7-.9-.546-.75-1.222-1.611-1.352-1.722a4.646,4.646,0,0,1-.926-1.417,1.077,1.077,0,0,1,.037-.546,3.612,3.612,0,0,0,.148-.519C636.776,127.727,636.859,127.727,637.109,128.06Zm-18.51.083a2.511,2.511,0,0,1,.148.63c.065.444.046.491-.287.889-.2.241-.463.583-.593.769s-.519.7-.88,1.157-.787,1-.954,1.222-.593.769-.944,1.232-.907,1.185-1.222,1.611-.8,1.046-1.065,1.389-.907,1.176-1.435,1.861-1.213,1.574-1.528,1.963a5.288,5.288,0,0,0-.583.8.573.573,0,0,1-.185.25,4.185,4.185,0,0,0-.472.611l-.287.454h-.574c-.306-.009-1-.065-1.537-.13a7.484,7.484,0,0,0-1.074-.083.143.143,0,0,1-.157-.1c-.065-.167.139-.435,1.269-1.63.759-.815,1.546-1.676,2.509-2.732a4.686,4.686,0,0,1,.815-.75c.139-.074.25-.2.25-.278a38.6,38.6,0,0,1,3.046-3.37c.333-.333,2.065-2.195,2.324-2.491a2.456,2.456,0,0,1,.445-.37c.157-.111.3-.25.3-.3a17.938,17.938,0,0,1,2.519-2.769C618.479,127.977,618.553,128.051,618.6,128.144Zm15.862.1a1.042,1.042,0,0,1,.722.843,6.414,6.414,0,0,1-.3,1.074c-.213.648-.343.907-.482.963a1.573,1.573,0,0,1-1.074-.324,2.049,2.049,0,0,1-.111-1.278,5.207,5.207,0,0,0,.157-.732C633.47,128.06,633.73,127.931,634.461,128.245Zm-14.843,3.13a2.5,2.5,0,0,1-.407.861,6.547,6.547,0,0,0-.417.7,2.929,2.929,0,0,1-.306.491,7.586,7.586,0,0,0-.463.75,7.431,7.431,0,0,1-.685,1.13,2.4,2.4,0,0,0-.306.528,3.025,3.025,0,0,1-.324.565,4.658,4.658,0,0,0-.324.528c0,.037-.352.6-.8,1.269-.278.417-.509.806-.732,1.213-.287.519-.695,1.194-1.482,2.454-.361.574-.991,1.667-1.463,2.546-.111.2-.287.491-.389.648a3.771,3.771,0,0,0-.324.556c-.074.148-.269.472-.426.713l-.3.444-.185-.352a3.12,3.12,0,0,1-.25-.667,1.51,1.51,0,0,0-.139-.417,6.161,6.161,0,0,1-.269-.759c-.222-.732-.2-.954.13-1.324.111-.13.4-.528.63-.88a17.266,17.266,0,0,1,1.056-1.5,1.645,1.645,0,0,0,.306-.5,2.325,2.325,0,0,1,.4-.6c.213-.269.491-.639.62-.824s.38-.528.556-.769.37-.509.417-.593.389-.583.741-1.111c.593-.87.833-1.185,1.463-1.972a5.018,5.018,0,0,0,.389-.593,8.006,8.006,0,0,1,.537-.806,14.633,14.633,0,0,0,1.213-1.7,5.75,5.75,0,0,1,.6-.824l.426-.491.241.537A2.969,2.969,0,0,1,619.618,131.375Zm16.927-1.046c.093.12.222.3.278.389.75,1.139,1.417,2.093,1.611,2.315a.636.636,0,0,1,.176.25,4.812,4.812,0,0,0,.444.667c.241.343.482.685.528.769a19.64,19.64,0,0,0,1.426,2c.1.1.194.213.194.259A16.313,16.313,0,0,0,642.536,139c.232.333.62.889.852,1.25.713,1.083,1.88,2.695,2.074,2.87a.563.563,0,0,1,.185.324.369.369,0,0,0,.083.231.678.678,0,0,1,.074.6c-.2.481-.565,1.5-.676,1.889-.232.833-.3.806-.982-.407-.213-.38-.546-.944-.741-1.241a2.919,2.919,0,0,1-.352-.657.511.511,0,0,0-.176-.269,1.481,1.481,0,0,1-.3-.454,6.747,6.747,0,0,0-.472-.852c-.194-.306-.417-.685-.491-.833s-.213-.389-.3-.528c-.222-.343-1.056-1.722-1.232-2.037-.074-.148-.259-.481-.407-.741a4.391,4.391,0,0,0-.389-.639.459.459,0,0,1-.13-.213,4.858,4.858,0,0,0-.417-.713,5.964,5.964,0,0,1-.417-.694c0-.028-.472-.852-1.056-1.833-1.222-2.065-1.445-2.491-1.445-2.852,0-.306.333-1.093.463-1.093A.662.662,0,0,1,636.545,130.329Zm-7.75.982a20.9,20.9,0,0,1,3.241.426c.88.2,1.1.315,1.259.6.12.241.111.269-.028.352a3,3,0,0,1-1.4-.074c-.7-.157-1.88-.37-2.38-.426a41.516,41.516,0,0,0-5.259-.019c-1.806.083-2.037.083-2.167-.056-.306-.3.065-.583.843-.667.2-.019.713-.065,1.12-.093s1.037-.093,1.389-.13A20.336,20.336,0,0,1,628.794,131.31Zm7.185,1.991c.732,1.407,1.065,2.046,1.611,3.056.648,1.2,1.3,2.435,1.824,3.472.278.537.63,1.213.8,1.519s.565,1.046.889,1.657.667,1.222.759,1.352a.822.822,0,0,1,.176.352.907.907,0,0,0,.167.38,15.11,15.11,0,0,1,.806,1.435,7.249,7.249,0,0,1,.417.907c0,.111-.426.065-1.8-.185-.565-.111-1.028-.194-1.046-.194a4.209,4.209,0,0,1-.315-.63c-.157-.343-.426-.926-.6-1.3s-.315-.694-.315-.713-.2-.481-.463-1.019-.463-1.009-.463-1.056a.387.387,0,0,0-.111-.176.4.4,0,0,1-.12-.231,4.678,4.678,0,0,0-.259-.667c-.148-.306-.315-.685-.38-.833s-.232-.509-.361-.787-.352-.778-.481-1.111c-.25-.611-.445-1.056-.833-1.9-.12-.259-.426-.944-.685-1.528s-.537-1.185-.611-1.324c-.2-.389-.176-.546.194-.954a2.7,2.7,0,0,0,.417-.583c.046-.12.1-.2.13-.185S635.637,132.644,635.98,133.3Zm-15.232-.287.194.352-.25.574c-.25.593-.426.982-.806,1.815a6.932,6.932,0,0,0-.63,1.519.41.41,0,0,1-.139.241.788.788,0,0,0-.194.306c-.037.111-.287.676-.556,1.25a10.4,10.4,0,0,0-.5,1.148,1.229,1.229,0,0,1-.195.407c-.1.176-.167.315-.13.315a2.195,2.195,0,0,1-.259.62c-.352.713-.741,1.537-.759,1.6,0,.028-.083.25-.176.509-.176.472-.25.648-1.056,2.37l-.454.982-.454.065c-.25.037-.9.13-1.445.213a4.361,4.361,0,0,1-1.056.093c-.074-.065.2-.676.333-.759a.233.233,0,0,0,.093-.194,1.672,1.672,0,0,1,.213-.482c.12-.185.435-.741.685-1.222s.574-1.065.7-1.3.324-.593.435-.815.454-.815.75-1.343a8.452,8.452,0,0,0,.546-1.046.751.751,0,0,1,.176-.324,8.336,8.336,0,0,0,.528-.907c.194-.37.472-.87.6-1.111s.417-.759.63-1.167.5-.87.62-1.037a1.267,1.267,0,0,0,.222-.38,6.465,6.465,0,0,1,.648-1.222,7.232,7.232,0,0,0,.435-.787c.157-.306.352-.694.454-.861l.176-.3.213.25A3.986,3.986,0,0,1,620.748,133.014Zm3.871.472a1.892,1.892,0,0,1,.157.917,3.672,3.672,0,0,0,.13.972,1.139,1.139,0,0,1,.093.389c0,.407.611.824.787.546a4.94,4.94,0,0,0,.111-.963c.028-.482.093-1.12.148-1.417l.111-.537.407-.028c.63-.046.667.056.667,1.583-.009.87.019,1.019.176,1.176a.636.636,0,0,0,.768.1c.2-.083.213-.13.241-1.046.028-1.491.139-1.75.741-1.787a.658.658,0,0,1,.7.417,1.369,1.369,0,0,1,.083.954A3.907,3.907,0,0,0,629.9,136c.009.176.065.315.157.352.195.074.593-.028.593-.157a.488.488,0,0,1,.12-.241,4.491,4.491,0,0,0,.435-1.528,1.747,1.747,0,0,1,.407-.9,1.878,1.878,0,0,1,1.269.4,1,1,0,0,1-.037.472,3.6,3.6,0,0,0-.074.769,5.19,5.19,0,0,1-1.278,2.519l-.231.213-3.195-.056c-1.759-.028-3.333-.074-3.5-.1-.259-.037-.333-.12-.565-.62a9.646,9.646,0,0,1-.843-3.445c.028-.222.093-.287.315-.343A1.694,1.694,0,0,1,624.618,133.486Zm9.26.62c.046.12.278.732.519,1.37.648,1.722.7,1.861.889,2.278a2.081,2.081,0,0,1,.176.444,1.575,1.575,0,0,0,.13.361c.065.167.213.546.333.852s.343.889.509,1.3.333.843.37.963a4.23,4.23,0,0,0,.287.639,2.378,2.378,0,0,1,.222.519,10.457,10.457,0,0,0,.38,1.028c.213.509.417,1.009.454,1.111s.185.417.315.7a4.022,4.022,0,0,1,.241.611,3.075,3.075,0,0,0,.232.611l.222.519-.38.722a8.9,8.9,0,0,1-.546.944.744.744,0,0,0-.176.343c0,.074-.037.13-.093.13s-.093.074-.093.176c0,.213-.25.444-.37.324a3.492,3.492,0,0,1-.269-.732c-.1-.361-.25-.833-.324-1.065s-.194-.667-.278-.972-.222-.741-.3-.972c-.111-.315-.815-2.556-1-3.195-.018-.056-.046-.157-.074-.231s-.111-.37-.194-.648-.25-.843-.389-1.25-.324-1.037-.417-1.389c-.2-.778-.38-1.361-.657-2.222a3.771,3.771,0,0,1-.2-1.389c.018-1.176.157-2.083.306-2.083C633.758,133.9,633.832,134,633.878,134.107Zm-12.139.611a2.757,2.757,0,0,0,.2.824c.25.565.241.685-.13,1.806-.4,1.213-1.3,4.139-1.593,5.167-.083.278-.2.676-.268.88s-.25.806-.417,1.343-.37,1.2-.463,1.482a6.258,6.258,0,0,0-.232.88,2.039,2.039,0,0,1-.2.583c-.065.111-.1.25-.074.3a.1.1,0,0,1-.046.139.478.478,0,0,0-.093.324.456.456,0,0,1-.083.315,1.426,1.426,0,0,0-.185.5,5.448,5.448,0,0,1-.194.713l-.1.259-.472-.639a6.09,6.09,0,0,1-.593-.935,1.151,1.151,0,0,0-.222-.352,1.77,1.77,0,0,1-.37-.991,3.481,3.481,0,0,1,.306-.935,6.488,6.488,0,0,0,.482-1.269c0-.028.13-.315.278-.648a5.911,5.911,0,0,0,.278-.648c0-.028.139-.38.315-.787s.435-1.019.583-1.361a5.54,5.54,0,0,0,.259-.694,15.729,15.729,0,0,1,.63-1.565c.056-.093.222-.528.389-.963s.4-1.019.528-1.3c.213-.472.306-.676.565-1.3.083-.222.232-.565.519-1.232.074-.157.157-.38.194-.482l.065-.185.065.185A1.86,1.86,0,0,1,621.738,134.718Zm1.565,3.713a.9.9,0,0,0,.083.3c.018.037.12.472.222.982a5.929,5.929,0,0,1,.046,2.667c-.083.361-.2,1.019-.287,1.472a10.512,10.512,0,0,1-.315,1.37c-.139.417-.157.6-.083.787.093.241.074.482-.111,1.482-.2,1.148-.287,1.5-.343,1.491a1.669,1.669,0,0,0-.426.139c-.194.083-.37.157-.38.157s-.389.167-.824.37-.815.37-.843.37a2.678,2.678,0,0,0-.482.194,1.5,1.5,0,0,1-.444.157,5.667,5.667,0,0,1,.2-.907c.287-1.111.268-1.065.444-1.667.083-.278.222-.824.3-1.2s.176-.778.213-.88a15.5,15.5,0,0,0,.509-1.852c.028-.2.185-.787.333-1.3.306-1,.306-1.019.732-2.732a16.117,16.117,0,0,1,.759-2.482c.1-.194.12-.176.38.324A4.962,4.962,0,0,1,623.3,138.431Zm9.537-1.083a2.592,2.592,0,0,1,.2.769,6.427,6.427,0,0,0,.241.972c.065.176.232.806.361,1.389s.306,1.25.38,1.482a6.169,6.169,0,0,1,.185.741c.028.176.176.722.324,1.2.333,1.093,1.38,5.213,1.546,6.1.056.306.056.315-.213.25a8.736,8.736,0,0,1-1.056-.426c-.435-.194-1.065-.472-1.407-.611-.491-.2-.62-.306-.657-.491-.028-.13-.12-.537-.213-.889a9.785,9.785,0,0,1-.185-1.482c-.019-.463-.056-.9-.065-.972a10.1,10.1,0,0,0-.352-1.185,11.537,11.537,0,0,1-.324-3.685,4.2,4.2,0,0,1,.667-2.676C632.619,137.218,632.693,137.153,632.841,137.348Zm-3.75,1.241c1.12.065,1.343.176.954.481-.222.176-.352.185-2.157.167-1.945-.019-2.426-.093-2.426-.37,0-.176.093-.231.574-.333A15.726,15.726,0,0,1,629.091,138.588Zm-2.074,1.537a10.993,10.993,0,0,0,2.343,0,7.38,7.38,0,0,1,1.25-.046c.111.037.12.139.074.482a3.56,3.56,0,0,0-.056.611c0,.1.009.5.019.87a12.9,12.9,0,0,0,.231,1.843c.315,1.574.306,1.722-.12,2.148-.509.519-1.509.732-1.685.37a7.373,7.373,0,0,1-.991-3.148c-.074-.537-.157-1.028-.176-1.093s-.194-.111-.444-.111c-.509,0-.676.194-.787.907-.074.491.111,1.241.787,3.1.25.685.259.722.111.972-.3.491-1.083.361-2.287-.38-.333-.213-.685-.435-.768-.509-.259-.222-.287-.657-.083-1.454.1-.407.2-.926.232-1.157.13-1.009.231-2.222.241-2.75,0-.685.139-.87.583-.806C625.646,140,626.341,140.07,627.016,140.125Zm-2.509,3.333c-.028.074-.056.046-.056-.056s.018-.157.046-.12A.187.187,0,0,1,624.507,143.459ZM624.2,147.4a7.864,7.864,0,0,0,2.445,1.176.587.587,0,0,1,.37.213,14.147,14.147,0,0,1-.019,3.074c-.028.685-.074,2.5-.111,4.028s-.083,2.806-.12,2.852c-.083.083-.806-.287-2.417-1.232-.639-.37-1.268-.75-1.407-.824-.315-.185-.343-.435-.194-1.491a11.419,11.419,0,0,0,.13-1.157,1.728,1.728,0,0,1,.092-.509,19.439,19.439,0,0,0,.324-2.315c.018-.176.074-.593.12-.926.13-.852.278-1.991.333-2.62a1.653,1.653,0,0,1,.111-.528A1.693,1.693,0,0,1,624.2,147.4Zm7.25.713c.074.463.185,1.287.259,1.852s.176,1.269.222,1.574.148,1.074.232,1.713a17.05,17.05,0,0,0,.444,2.889c.056.111.009.2-.185.333a13.068,13.068,0,0,1-1.593.944,4.083,4.083,0,0,0-.657.37,10.721,10.721,0,0,1-1.657.926c-.056,0-.093-.343-.093-.861,0-.463-.046-2.287-.093-4.046-.167-5.547-.176-5.361.361-5.371a4.811,4.811,0,0,0,.852-.185,2.459,2.459,0,0,0,1.074-.6,1.592,1.592,0,0,1,.574-.389C631.294,147.274,631.369,147.533,631.452,148.117Z" transform="translate(0)" fill="#393939" fill-rule="evenodd"/><path d="M681.718,423.032a3.472,3.472,0,0,0-.009,1.6,2.379,2.379,0,0,0,.583.074,2.74,2.74,0,0,1,.583.083,25.765,25.765,0,0,1,.111,3.917L683,432.55l-.694-.037c-.445-.028-.722,0-.778.065a5.183,5.183,0,0,0,.176,1.806c.111.25.176.25,2.454-.028.667-.074,1.639-.148,2.176-.167.806-.028.972-.009.982.111,0,.074.019.231.019.343.018.2.046.213.935.213.639,0,.944-.037,1-.12.037-.056.074-2.324.074-5.019v-4.908l.324-.046.324-.046.028-.8.028-.806-.306-.046c-.167-.028-1.954-.056-3.963-.056s-3.722-.037-3.806-.056A.253.253,0,0,0,681.718,423.032Zm5.6,1.769a5.965,5.965,0,0,1,0,1.407,11.051,11.051,0,0,1-2.019.056l-.519-.019-.074-.667c-.083-.9-.074-.907,1.417-.843C686.774,424.763,687.311,424.791,687.321,424.8Zm-.1,3.093a1.144,1.144,0,0,1,.083,1.037,8.692,8.692,0,0,1-2.454.046,1.459,1.459,0,0,1,.019-1.046A7.678,7.678,0,0,1,687.219,427.893Zm-.13,2.787c.3.065.3.065.324.713.028.463,0,.685-.083.75a10.832,10.832,0,0,1-2.2.25l-.324.009-.028-.778a5.636,5.636,0,0,1,.019-.907c.046-.1.268-.13,1.028-.111A10.408,10.408,0,0,1,687.089,430.68Z" transform="translate(-82.721 -316.139)" fill="#393939" fill-rule="evenodd"/><path d="M781.008,430.265l-.306.028v3.537c-.009,5.389,0,6.2.093,6.315a35.9,35.9,0,0,0,5.111.083l.611-.056-.046-4.917c-.028-2.713-.056-4.935-.065-4.945C786.378,430.284,781.3,430.237,781.008,430.265Zm3.583,1.926c.046.046.093,1.445.111,3.111.028,2.963.028,3.028-.157,3.074a7.358,7.358,0,0,1-1.935-.019c-.028-.046-.056-1.445-.074-3.111-.018-2.593,0-3.037.111-3.111A5.92,5.92,0,0,1,784.591,432.191Z" transform="translate(-172.742 -322.77)" fill="#393939" fill-rule="evenodd"/><path d="M687.241,558.368a7.553,7.553,0,0,0,.018,1.843c.046.028,1.065.056,2.269.056s2.287.037,2.435.083c.259.065.269.083.278.685l.009.62-.287.009c-.157,0-1.056.009-2,.018l-1.713.019-.028.87a3.86,3.86,0,0,0,.046.944,13.038,13.038,0,0,0,1.954.093,11.2,11.2,0,0,1,1.926.093,6.491,6.491,0,0,1,.074.963l.028.88-.38.009c-.213.009-1.62,0-3.13-.009-2.732-.018-2.741-.018-2.852.185a4.331,4.331,0,0,0,.009,1.759c.065.13.9.148,7.556.139h7.482l.018-.944c.019-.657-.009-.963-.083-1.019-.065-.037-1.472-.074-3.13-.083s-3.1-.018-3.213-.028c-.2-.009-.213-.037-.213-.935a7.355,7.355,0,0,1,.028-.935c.009,0,.269-.028.565-.056.444-.037.565-.018.63.1.1.185.352.194.352.019,0-.1.213-.12,1.111-.1,1.37.028,1.361.028,1.3-1.074l-.046-.778-.463-.065c-.25-.028-1.139-.065-1.963-.065l-1.509-.009v-1.3l1.093-.009c.593-.009,1.713-.018,2.472-.028l1.389-.009.028-.954c.018-.7-.009-.954-.093-.991C698.927,558.276,687.278,558.276,687.241,558.368Z" transform="translate(-86.633 -438.957)" fill="#393939" fill-rule="evenodd"/><path d="M1141.652,410.753c-.037.037-.065,2.167-.065,4.732v4.667l-3.176-.019c-1.75-.009-3.222.009-3.287.037a6.184,6.184,0,0,0,.009,2.065,20.1,20.1,0,0,0,2.167.056c1.157,0,2.232.018,2.371.046l.268.046-.046,1.657a6.783,6.783,0,0,1-.157,1.8.245.245,0,0,0-.056.222.27.27,0,0,1-.028.259c-.046.093-.148.417-.241.722a6.685,6.685,0,0,1-.278.833c-.065.148-.259.593-.417.972a7.559,7.559,0,0,1-2.7,3.417c-.25.176-.444.389-.444.463a6.259,6.259,0,0,0,1.009,1.528c.194.176.2.176.713-.185,2-1.37,4-5.158,4.241-8.047.093-1.019.176-2.482.167-2.852a2.156,2.156,0,0,1,.083-.676c.083-.222.1-.232.75-.185.37.019.695.046.722.046s.046,2.426.046,5.38V433.1l.463.463a2.441,2.441,0,0,0,.741.556,13.148,13.148,0,0,0,1.944.13c1.8.037,2.195-.028,2.639-.435a1.356,1.356,0,0,1,.4-.269,1.1,1.1,0,0,0,.352-.472,2.161,2.161,0,0,1,.259-.472,2.18,2.18,0,0,0,.185-.722,8.977,8.977,0,0,1,.38-1.593,5.039,5.039,0,0,0,.185-.815c.074-.481.074-.667-.009-.769a6.256,6.256,0,0,0-1.6-.778c-.093,0-.167.176-.241.528-.056.3-.139.685-.185.861-.093.3-.269,1.111-.472,2.111-.167.833-.324.9-1.917.87-.611-.019-.7-.046-.917-.278l-.232-.25.056-3.658c.028-2.009.055-4.13.055-4.695v-1.046l2.528-.019,2.519-.028.083-.917a2.686,2.686,0,0,0-.009-1.065c-.083-.13-.472-.148-3.445-.176-2.556-.019-3.361-.046-3.389-.139-.028-.056-.055-2.176-.074-4.695l-.019-4.583-.935-.028A4.488,4.488,0,0,0,1141.652,410.753Z" transform="translate(-494.274 -305.036)" fill="#393939" fill-rule="evenodd"/><path d="M1145.406,426.222c-.426.361-.676.639-.676.759a2.314,2.314,0,0,0,.426.741,8.4,8.4,0,0,1,1.518,2.463,1.68,1.68,0,0,0,.213.435c.12.185.343.62.509.963s.343.63.417.63a6.849,6.849,0,0,0,1.482-1.083c.157-.185.157-.2-.056-.593-.12-.222-.305-.556-.417-.732s-.222-.389-.259-.463a12.78,12.78,0,0,0-.769-1.389c-.167-.278-.417-.694-.574-.926s-.3-.482-.333-.556c-.176-.4-.537-.833-.667-.824A3.1,3.1,0,0,0,1145.406,426.222Z" transform="translate(-503.065 -318.588)" fill="#393939" fill-rule="evenodd"/><path d="M1243.154,428.882a2.583,2.583,0,0,0-.139.4c0,.028-.111.259-.231.519a2.338,2.338,0,0,0-.231.574,4.34,4.34,0,0,1-.37.759,7.311,7.311,0,0,0-.37.7c0,.028-.213.481-.482,1.009a4.084,4.084,0,0,0-.426,1.083,6.19,6.19,0,0,0,1.6.9,16,16,0,0,0,.889-1.648c.157-.333.546-1.148.87-1.806.787-1.657.833-1.778.695-1.945a8.408,8.408,0,0,0-1.583-.88C1243.33,428.549,1243.228,428.7,1243.154,428.882Z" transform="translate(-590.331 -321.221)" fill="#393939" fill-rule="evenodd"/></g><path d="M15.28-11.2v-.16a1.063,1.063,0,0,1,.24-.56L32.48-33.68c2.08-2.64,2.64-4.48,2.64-8.32v-5.68a8.062,8.062,0,0,0-8.48-8.48H11.6c-5.12,0-8.48,3.44-8.48,8.48V-38h12v-6.56a.212.212,0,0,1,.24-.24h7.52a.212.212,0,0,1,.24.24v4.24a1.117,1.117,0,0,1-.24.72L5.76-17.68c-2.08,2.72-2.64,4.56-2.64,8.4V0h32V-11.2ZM73.36-8.48V-47.52A8.062,8.062,0,0,0,64.88-56H49.84a8.062,8.062,0,0,0-8.48,8.48V-8.48A8.062,8.062,0,0,0,49.84,0H64.88A8.062,8.062,0,0,0,73.36-8.48Zm-20-2.96V-44.56a.212.212,0,0,1,.24-.24h7.52a.212.212,0,0,1,.24.24v33.12a.212.212,0,0,1-.24.24H53.6A.212.212,0,0,1,53.36-11.44Zm38.4.24v-.16a1.063,1.063,0,0,1,.24-.56l16.96-21.76c2.08-2.64,2.64-4.48,2.64-8.32v-5.68a8.062,8.062,0,0,0-8.48-8.48H88.08c-5.12,0-8.48,3.44-8.48,8.48V-38h12v-6.56a.212.212,0,0,1,.24-.24h7.52a.212.212,0,0,1,.24.24v4.24a1.117,1.117,0,0,1-.24.72L82.24-17.68c-2.08,2.72-2.64,4.56-2.64,8.4V0h32V-11.2ZM145.12,0V-11.2h-8V-56h-20v11.2h8v33.6h-8V0Z" transform="translate(424 113)" fill="#393939"/></g></svg>